{
	"asset":{
		"generator":"Khronos glTF Blender I/O v3.6.27",
		"version":"2.0"
	},
	"extensionsUsed":[
		"KHR_materials_specular",
		"KHR_materials_ior"
	],
	"scene":0,
	"scenes":[
		{
			"name":"Scene",
			"nodes":[
				0,
				1,
				2,
				3,
				4,
				5,
				6,
				7,
				8
			]
		}
	],
	"nodes":[
		{
			"mesh":0,
			"name":"BuildingMesh-00097.001"
		},
		{
			"mesh":1,
			"name":"PointMaps1",
			"scale":[
				0.058031804859638214,
				0.058031804859638214,
				0.058031804859638214
			],
			"translation":[
				-1.107974886894226,
				0.30000001192092896,
				-0.051907822489738464
			]
		},
		{
			"name":"Empty",
			"scale":[
				-0.09496430307626724,
				-0.09496430307626724,
				-0.09496430307626724
			],
			"translation":[
				0.4429625868797302,
				2.038705348968506,
				3.0897157192230225
			]
		},
		{
			"mesh":2,
			"name":"PointMaps2",
			"scale":[
				0.058031804859638214,
				0.058031804859638214,
				0.058031804859638214
			],
			"translation":[
				-0.4607788324356079,
				0.30000001192092896,
				-0.2686499059200287
			]
		},
		{
			"mesh":3,
			"name":"PointMaps3",
			"scale":[
				0.058031804859638214,
				0.058031804859638214,
				0.058031804859638214
			],
			"translation":[
				0.8410347700119019,
				0.30000001192092896,
				-0.8609543442726135
			]
		},
		{
			"mesh":4,
			"name":"PointMaps4",
			"scale":[
				0.058031804859638214,
				0.058031804859638214,
				0.058031804859638214
			],
			"translation":[
				1.4334427118301392,
				0.30000001192092896,
				0.31248995661735535
			]
		},
		{
			"mesh":5,
			"name":"PointMaps5",
			"scale":[
				0.058031804859638214,
				0.058031804859638214,
				0.058031804859638214
			],
			"translation":[
				0.9482662677764893,
				0.30000001192092896,
				1.2178261280059814
			]
		},
		{
			"mesh":6,
			"name":"PointMaps6",
			"scale":[
				0.058031804859638214,
				0.058031804859638214,
				0.058031804859638214
			],
			"translation":[
				0.05447300523519516,
				0.30000001192092896,
				1.7515194416046143
			]
		},
		{
			"mesh":7,
			"name":"PointMaps7",
			"scale":[
				0.058031804859638214,
				0.058031804859638214,
				0.058031804859638214
			],
			"translation":[
				-0.2114875614643097,
				0.30000001192092896,
				1.142417550086975
			]
		}
	],
	"animations":[
		{
			"channels":[
				{
					"sampler":0,
					"target":{
						"node":2,
						"path":"translation"
					}
				},
				{
					"sampler":1,
					"target":{
						"node":2,
						"path":"rotation"
					}
				},
				{
					"sampler":2,
					"target":{
						"node":2,
						"path":"scale"
					}
				}
			],
			"name":"EmptyAction",
			"samplers":[
				{
					"input":26,
					"interpolation":"STEP",
					"output":27
				},
				{
					"input":26,
					"interpolation":"STEP",
					"output":28
				},
				{
					"input":26,
					"interpolation":"STEP",
					"output":29
				}
			]
		}
	],
	"materials":[
		{
			"doubleSided":true,
			"emissiveFactor":[
				0.002429532466419193,
				0.0003752639480564257,
				0.0005723976032191436
			],
			"extensions":{
				"KHR_materials_specular":{
					"specularColorFactor":[
						0,
						0,
						0
					]
				},
				"KHR_materials_ior":{
					"ior":1.4500000476837158
				}
			},
			"name":"Maps.001",
			"pbrMetallicRoughness":{
				"baseColorTexture":{
					"index":0
				},
				"metallicFactor":0
			}
		},
		{
			"doubleSided":true,
			"extensions":{
				"KHR_materials_specular":{
					"specularColorFactor":[
						3.783164886250584,
						1.2888473545363968,
						1.2356448216760016
					]
				},
				"KHR_materials_ior":{
					"ior":1.4500000476837158
				}
			},
			"name":"Blob",
			"pbrMetallicRoughness":{
				"baseColorFactor":[
					0.8000000715255737,
					0.2725437581539154,
					0.2612933814525604,
					1
				],
				"roughnessFactor":0.020454544574022293
			}
		},
		{
			"doubleSided":true,
			"extensions":{
				"KHR_materials_specular":{
					"specularColorFactor":[
						2.96361859396723,
						1.354986165293195,
						3.297450833985271
					]
				},
				"KHR_materials_ior":{
					"ior":1.4500000476837158
				}
			},
			"name":"Blob2",
			"pbrMetallicRoughness":{
				"baseColorFactor":[
					0.29852020740509033,
					0.13648542761802673,
					0.332146555185318,
					1
				],
				"roughnessFactor":0.020454544574022293
			}
		},
		{
			"doubleSided":true,
			"extensions":{
				"KHR_materials_specular":{
					"specularColorFactor":[
						2.96361859396723,
						1.354986165293195,
						3.297450833985271
					]
				},
				"KHR_materials_ior":{
					"ior":1.4500000476837158
				}
			},
			"name":"Blob2.001",
			"pbrMetallicRoughness":{
				"baseColorFactor":[
					0.29852020740509033,
					0.13648542761802673,
					0.332146555185318,
					1
				],
				"roughnessFactor":0.020454544574022293
			}
		},
		{
			"doubleSided":true,
			"extensions":{
				"KHR_materials_specular":{
					"specularColorFactor":[
						2.96361859396723,
						1.354986165293195,
						3.297450833985271
					]
				},
				"KHR_materials_ior":{
					"ior":1.4500000476837158
				}
			},
			"name":"Blob2.002",
			"pbrMetallicRoughness":{
				"baseColorFactor":[
					0.29852020740509033,
					0.13648542761802673,
					0.332146555185318,
					1
				],
				"roughnessFactor":0.020454544574022293
			}
		},
		{
			"doubleSided":true,
			"extensions":{
				"KHR_materials_specular":{
					"specularColorFactor":[
						2.96361859396723,
						1.354986165293195,
						3.297450833985271
					]
				},
				"KHR_materials_ior":{
					"ior":1.4500000476837158
				}
			},
			"name":"Blob2.003",
			"pbrMetallicRoughness":{
				"baseColorFactor":[
					0.29852020740509033,
					0.13648542761802673,
					0.332146555185318,
					1
				],
				"roughnessFactor":0.020454544574022293
			}
		},
		{
			"doubleSided":true,
			"extensions":{
				"KHR_materials_specular":{
					"specularColorFactor":[
						2.96361859396723,
						1.354986165293195,
						3.297450833985271
					]
				},
				"KHR_materials_ior":{
					"ior":1.4500000476837158
				}
			},
			"name":"Blob2.004",
			"pbrMetallicRoughness":{
				"baseColorFactor":[
					0.29852020740509033,
					0.13648542761802673,
					0.332146555185318,
					1
				],
				"roughnessFactor":0.020454544574022293
			}
		},
		{
			"doubleSided":true,
			"extensions":{
				"KHR_materials_specular":{
					"specularColorFactor":[
						2.96361859396723,
						1.354986165293195,
						3.297450833985271
					]
				},
				"KHR_materials_ior":{
					"ior":1.4500000476837158
				}
			},
			"name":"Blob2.005",
			"pbrMetallicRoughness":{
				"baseColorFactor":[
					0.29852020740509033,
					0.13648542761802673,
					0.332146555185318,
					1
				],
				"roughnessFactor":0.020454544574022293
			}
		}
	],
	"meshes":[
		{
			"name":"BuildingMesh-00097.002",
			"primitives":[
				{
					"attributes":{
						"POSITION":0,
						"NORMAL":1,
						"TEXCOORD_0":2
					},
					"indices":3,
					"material":0
				}
			]
		},
		{
			"name":"Icosphere",
			"primitives":[
				{
					"attributes":{
						"POSITION":4,
						"NORMAL":5,
						"TEXCOORD_0":6
					},
					"indices":7,
					"material":1
				}
			]
		},
		{
			"name":"Icosphere.001",
			"primitives":[
				{
					"attributes":{
						"POSITION":8,
						"NORMAL":9,
						"TEXCOORD_0":10
					},
					"indices":7,
					"material":2
				}
			]
		},
		{
			"name":"Icosphere.002",
			"primitives":[
				{
					"attributes":{
						"POSITION":11,
						"NORMAL":12,
						"TEXCOORD_0":13
					},
					"indices":7,
					"material":3
				}
			]
		},
		{
			"name":"Icosphere.003",
			"primitives":[
				{
					"attributes":{
						"POSITION":14,
						"NORMAL":15,
						"TEXCOORD_0":16
					},
					"indices":7,
					"material":4
				}
			]
		},
		{
			"name":"Icosphere.004",
			"primitives":[
				{
					"attributes":{
						"POSITION":17,
						"NORMAL":18,
						"TEXCOORD_0":19
					},
					"indices":7,
					"material":5
				}
			]
		},
		{
			"name":"Icosphere.005",
			"primitives":[
				{
					"attributes":{
						"POSITION":20,
						"NORMAL":21,
						"TEXCOORD_0":22
					},
					"indices":7,
					"material":6
				}
			]
		},
		{
			"name":"Icosphere.006",
			"primitives":[
				{
					"attributes":{
						"POSITION":23,
						"NORMAL":24,
						"TEXCOORD_0":25
					},
					"indices":7,
					"material":7
				}
			]
		}
	],
	"textures":[
		{
			"sampler":0,
			"source":0
		}
	],
	"images":[
		{
			"mimeType":"image/png",
			"name":"UVMap_Map_Freiburg",
			"uri":"UVMap_Map_Freiburg.png"
		}
	],
	"accessors":[
		{
			"bufferView":0,
			"componentType":5126,
			"count":257973,
			"max":[
				2.06868577003479,
				0.565186619758606,
				2.0856757164001465
			],
			"min":[
				-2.260507106781006,
				-0.047161683440208435,
				-2.270015001296997
			],
			"type":"VEC3"
		},
		{
			"bufferView":1,
			"componentType":5126,
			"count":257973,
			"type":"VEC3"
		},
		{
			"bufferView":2,
			"componentType":5126,
			"count":257973,
			"type":"VEC2"
		},
		{
			"bufferView":3,
			"componentType":5125,
			"count":313047,
			"type":"SCALAR"
		},
		{
			"bufferView":4,
			"componentType":5126,
			"count":240,
			"max":[
				0.9510578513145447,
				1,
				0.9999999403953552
			],
			"min":[
				-0.9510578513145447,
				-1,
				-0.9999999403953552
			],
			"type":"VEC3"
		},
		{
			"bufferView":5,
			"componentType":5126,
			"count":240,
			"type":"VEC3"
		},
		{
			"bufferView":6,
			"componentType":5126,
			"count":240,
			"type":"VEC2"
		},
		{
			"bufferView":7,
			"componentType":5123,
			"count":240,
			"type":"SCALAR"
		},
		{
			"bufferView":8,
			"componentType":5126,
			"count":240,
			"max":[
				0.9510578513145447,
				1,
				0.9999999403953552
			],
			"min":[
				-0.9510578513145447,
				-1,
				-0.9999999403953552
			],
			"type":"VEC3"
		},
		{
			"bufferView":9,
			"componentType":5126,
			"count":240,
			"type":"VEC3"
		},
		{
			"bufferView":10,
			"componentType":5126,
			"count":240,
			"type":"VEC2"
		},
		{
			"bufferView":11,
			"componentType":5126,
			"count":240,
			"max":[
				0.9510578513145447,
				1,
				0.9999999403953552
			],
			"min":[
				-0.9510578513145447,
				-1,
				-0.9999999403953552
			],
			"type":"VEC3"
		},
		{
			"bufferView":12,
			"componentType":5126,
			"count":240,
			"type":"VEC3"
		},
		{
			"bufferView":13,
			"componentType":5126,
			"count":240,
			"type":"VEC2"
		},
		{
			"bufferView":14,
			"componentType":5126,
			"count":240,
			"max":[
				0.9510578513145447,
				1,
				0.9999999403953552
			],
			"min":[
				-0.9510578513145447,
				-1,
				-0.9999999403953552
			],
			"type":"VEC3"
		},
		{
			"bufferView":15,
			"componentType":5126,
			"count":240,
			"type":"VEC3"
		},
		{
			"bufferView":16,
			"componentType":5126,
			"count":240,
			"type":"VEC2"
		},
		{
			"bufferView":17,
			"componentType":5126,
			"count":240,
			"max":[
				0.9510578513145447,
				1,
				0.9999999403953552
			],
			"min":[
				-0.9510578513145447,
				-1,
				-0.9999999403953552
			],
			"type":"VEC3"
		},
		{
			"bufferView":18,
			"componentType":5126,
			"count":240,
			"type":"VEC3"
		},
		{
			"bufferView":19,
			"componentType":5126,
			"count":240,
			"type":"VEC2"
		},
		{
			"bufferView":20,
			"componentType":5126,
			"count":240,
			"max":[
				0.9510578513145447,
				1,
				0.9999999403953552
			],
			"min":[
				-0.9510578513145447,
				-1,
				-0.9999999403953552
			],
			"type":"VEC3"
		},
		{
			"bufferView":21,
			"componentType":5126,
			"count":240,
			"type":"VEC3"
		},
		{
			"bufferView":22,
			"componentType":5126,
			"count":240,
			"type":"VEC2"
		},
		{
			"bufferView":23,
			"componentType":5126,
			"count":240,
			"max":[
				0.9510578513145447,
				1,
				0.9999999403953552
			],
			"min":[
				-0.9510578513145447,
				-1,
				-0.9999999403953552
			],
			"type":"VEC3"
		},
		{
			"bufferView":24,
			"componentType":5126,
			"count":240,
			"type":"VEC3"
		},
		{
			"bufferView":25,
			"componentType":5126,
			"count":240,
			"type":"VEC2"
		},
		{
			"bufferView":26,
			"componentType":5126,
			"count":2,
			"max":[
				4.166666666666667
			],
			"min":[
				0.041666666666666664
			],
			"type":"SCALAR"
		},
		{
			"bufferView":27,
			"componentType":5126,
			"count":2,
			"type":"VEC3"
		},
		{
			"bufferView":28,
			"componentType":5126,
			"count":2,
			"type":"VEC4"
		},
		{
			"bufferView":29,
			"componentType":5126,
			"count":2,
			"type":"VEC3"
		}
	],
	"bufferViews":[
		{
			"buffer":0,
			"byteLength":3095676,
			"byteOffset":0,
			"target":34962
		},
		{
			"buffer":0,
			"byteLength":3095676,
			"byteOffset":3095676,
			"target":34962
		},
		{
			"buffer":0,
			"byteLength":2063784,
			"byteOffset":6191352,
			"target":34962
		},
		{
			"buffer":0,
			"byteLength":1252188,
			"byteOffset":8255136,
			"target":34963
		},
		{
			"buffer":0,
			"byteLength":2880,
			"byteOffset":9507324,
			"target":34962
		},
		{
			"buffer":0,
			"byteLength":2880,
			"byteOffset":9510204,
			"target":34962
		},
		{
			"buffer":0,
			"byteLength":1920,
			"byteOffset":9513084,
			"target":34962
		},
		{
			"buffer":0,
			"byteLength":480,
			"byteOffset":9515004,
			"target":34963
		},
		{
			"buffer":0,
			"byteLength":2880,
			"byteOffset":9515484,
			"target":34962
		},
		{
			"buffer":0,
			"byteLength":2880,
			"byteOffset":9518364,
			"target":34962
		},
		{
			"buffer":0,
			"byteLength":1920,
			"byteOffset":9521244,
			"target":34962
		},
		{
			"buffer":0,
			"byteLength":2880,
			"byteOffset":9523164,
			"target":34962
		},
		{
			"buffer":0,
			"byteLength":2880,
			"byteOffset":9526044,
			"target":34962
		},
		{
			"buffer":0,
			"byteLength":1920,
			"byteOffset":9528924,
			"target":34962
		},
		{
			"buffer":0,
			"byteLength":2880,
			"byteOffset":9530844,
			"target":34962
		},
		{
			"buffer":0,
			"byteLength":2880,
			"byteOffset":9533724,
			"target":34962
		},
		{
			"buffer":0,
			"byteLength":1920,
			"byteOffset":9536604,
			"target":34962
		},
		{
			"buffer":0,
			"byteLength":2880,
			"byteOffset":9538524,
			"target":34962
		},
		{
			"buffer":0,
			"byteLength":2880,
			"byteOffset":9541404,
			"target":34962
		},
		{
			"buffer":0,
			"byteLength":1920,
			"byteOffset":9544284,
			"target":34962
		},
		{
			"buffer":0,
			"byteLength":2880,
			"byteOffset":9546204,
			"target":34962
		},
		{
			"buffer":0,
			"byteLength":2880,
			"byteOffset":9549084,
			"target":34962
		},
		{
			"buffer":0,
			"byteLength":1920,
			"byteOffset":9551964,
			"target":34962
		},
		{
			"buffer":0,
			"byteLength":2880,
			"byteOffset":9553884,
			"target":34962
		},
		{
			"buffer":0,
			"byteLength":2880,
			"byteOffset":9556764,
			"target":34962
		},
		{
			"buffer":0,
			"byteLength":1920,
			"byteOffset":9559644,
			"target":34962
		},
		{
			"buffer":0,
			"byteLength":8,
			"byteOffset":9561564
		},
		{
			"buffer":0,
			"byteLength":24,
			"byteOffset":9561572
		},
		{
			"buffer":0,
			"byteLength":32,
			"byteOffset":9561596
		},
		{
			"buffer":0,
			"byteLength":24,
			"byteOffset":9561628
		}
	],
	"samplers":[
		{
			"magFilter":9729,
			"minFilter":9987
		}
	],
	"buffers":[
		{
			"byteLength":9561652,
			"uri":"cityFreiburg_Maps_Blob_compression.bin"
		}
	]
}
